<?xml version="1.0" encoding="UTF-8"?>
<svg width="10px" height="12px" viewBox="0 0 10 12" version="1.1" xmlns="http://www.w3.org/2000/svg" xmlns:xlink="http://www.w3.org/1999/xlink">
    <!-- Generator: Sketch 59.1 (86144) - https://sketch.com -->
    <title>graph</title>
    <desc>Created with Sketch.</desc>
    <g id="Page-1" stroke="none" stroke-width="1" fill="none" fill-rule="evenodd">
        <g id="graph" fill="#409EFF" fill-rule="nonzero">
            <path d="M7.85714286,7.14285714 C7.3525,7.14285714 6.88868304,7.31738839 6.52254464,7.60926339 L4.23491071,6.17948661 C4.30265641,5.87304474 4.30265641,5.55550436 4.23491071,5.2490625 L6.52254464,3.81928571 C6.88868304,4.11118304 7.3525,4.28571429 7.85714286,4.28571429 C9.04060268,4.28571429 10,3.32631696 10,2.14285714 C10,0.959397321 9.04060268,0 7.85714286,0 C6.67368304,0 5.71428571,0.959397321 5.71428571,2.14285714 C5.71428571,2.30263393 5.73191964,2.45825893 5.76508929,2.60805804 L3.47745536,4.03783482 C3.11131696,3.74595982 2.6475,3.57142857 2.14285714,3.57142857 C0.959397321,3.57142857 0,4.53082589 0,5.71428571 C0,6.89774554 0.959397321,7.85714286 2.14285714,7.85714286 C2.6475,7.85714286 3.11131696,7.68261161 3.47745536,7.39073661 L5.76508929,8.82051339 C5.73127574,8.97326946 5.71424029,9.12926056 5.71428571,9.28571429 C5.71428571,10.4691741 6.67368304,11.4285714 7.85714286,11.4285714 C9.04060268,11.4285714 10,10.4691741 10,9.28571429 C10,8.10225446 9.04060268,7.14285714 7.85714286,7.14285714 Z" id="Path"></path>
        </g>
    </g>
</svg>