<?xml version="1.0" encoding="UTF-8"?>
<svg width="50px" height="43px" viewBox="0 0 50 43" version="1.1" xmlns="http://www.w3.org/2000/svg" xmlns:xlink="http://www.w3.org/1999/xlink">
    <!-- Generator: Sketch 59.1 (86144) - https://sketch.com -->
    <title>Logo</title>
    <desc>Created with Sketch.</desc>
    <g id="Page-1" stroke="none" stroke-width="1" fill="none" fill-rule="evenodd">
        <g id="Logo" fill="#DC5F5F">
            <path d="M6.32350747,9.11583564 C6.07027491,10.0666045 5.9352518,11.0660001 5.9352518,12.0971558 C5.9352518,18.4485243 11.0578967,23.5949471 17.3741007,23.5949471 C19.8911578,23.5949471 22.2186675,22.7776512 24.107972,21.3925016 L24.107972,21.3925016 L34.67,31.7028282 L25,42.3076923 L0.166,15.0730457 L0,15.0731578 L0.089,14.9890457 L0,14.8918173 L0.193,14.8910457 Z M34.6425514,0.962045675 L49.802,14.8910457 L50,14.8918173 L49.91,14.9900457 L50,15.0731578 L49.834,15.0730457 L36.862,29.2988282 L26.4329647,19.1186807 C27.8540686,17.2690776 28.7270244,14.9721089 28.8069406,12.4734384 L28.8129496,12.0971558 C28.8129496,6.73964273 25.1680455,2.23948199 20.2364299,0.962303479 L34.6425514,0.962045675 Z M17.3741007,3.86349456 C21.9049281,3.86349456 25.5755396,7.55114397 25.5755396,12.0971558 C25.5755396,16.6431676 21.9049281,20.3308171 17.3741007,20.3308171 C12.8432733,20.3308171 9.17266187,16.6431676 9.17266187,12.0971558 C9.17266187,7.55114397 12.8432733,3.86349456 17.3741007,3.86349456 Z" id="Combined-Shape"></path>
        </g>
    </g>
</svg>
